ffmpeg started on 2025-06-06 at 18:58:34
Report written to "D:\Convert\FFMetrics\reports\ssim_report-6.txt"
Log level: 32
Command line:
ffmpeg -hide_banner -nostdin -i "G:\\\xc0\xed\xe8\xec\xe5\\\xce\xed\xe3\xee\xe8\xed\xe3\xe8\\!_36_\xce\xf1\xe5\xed\xfc_2024\\DreamCast\\\xcf\xf3\xed\xe8\xf0\xf3 - \xec\xe8\xeb\xe0\xff \xf1\xeb\xe8\xe7\xfc\\[DC] Puniru wa Kawaii Slime - 09_Telegram_HEVC.mkv" -i "G:\\\xc0\xed\xe8\xec\xe5\\\xce\xed\xe3\xee\xe8\xed\xe3\xe8\\!_36_\xce\xf1\xe5\xed\xfc_2024\\DreamCast\\\xcf\xf3\xed\xe8\xf0\xf3 - \xec\xe8\xeb\xe0\xff \xf1\xeb\xe8\xe7\xfc\\[DC] Puniru wa Kawaii Slime - 09_Telegram.mp4" -lavfi "[0:v]settb=AVTB,setpts=PTS-STARTPTS,format=pix_fmts=yuv420p10,fps=24000/1001,scale=1920:1080:flags=bicubic[main];[1:v]settb=AVTB,setpts=PTS-STARTPTS,format=pix_fmts=yuv420p,fps=24000/1001,scale=1920:1080:flags=bicubic[ref];[main][ref]ssim=eof_action=endall:stats_file='D\\:/Convert/FFMetrics/logs/ssim_logfile-6.txt'" -f null -
Input #0, matroska,webm, from 'G:\Аниме\Онгоинги\!_36_Осень_2024\DreamCast\Пуниру - милая слизь\[DC] Puniru wa Kawaii Slime - 09_Telegram_HEVC.mkv':
  Metadata:
    COMPATIBLE_BRANDS: isomiso2avc1mp41
    MAJOR_BRAND     : isom
    MINOR_VERSION   : 512
    ENCODER         : Lavf61.7.100
  Duration: 00:24:04.99, start: -0.021000, bitrate: 1184 kb/s
  Stream #0:0: Video: hevc (Main 10), yuv420p10le(tv, bt709, progressive), 1920x1080 [SAR 1:1 DAR 16:9], 23.98 fps, 23.98 tbr, 1k tbn (default)
      Metadata:
        HANDLER_NAME    : VideoHandler
        VENDOR_ID       : [0][0][0][0]
        ENCODER         : Lavc61.19.100 libx265
        BPS             : 992186
        DURATION        : 00:23:56.559708333
        NUMBER_OF_FRAMES: 34443
        NUMBER_OF_BYTES : 178166795
        _STATISTICS_WRITING_APP: mkvpropedit v66.0.0 ('Josie') 64-bit
        _STATISTICS_WRITING_DATE_UTC: 2025-06-03 13:20:32
        _STATISTICS_TAGS: BPS DURATION NUMBER_OF_FRAMES NUMBER_OF_BYTES
  Stream #0:1: Audio: aac (LC), 48000 Hz, stereo, fltp (default)
      Metadata:
        HANDLER_NAME    : SoundHandler
        VENDOR_ID       : [0][0][0][0]
        ENCODER         : Lavc61.19.100 aac
        BPS             : 194396
        DURATION        : 00:24:04.992000000
        NUMBER_OF_FRAMES: 67735
        NUMBER_OF_BYTES : 35112644
        _STATISTICS_WRITING_APP: mkvpropedit v66.0.0 ('Josie') 64-bit
        _STATISTICS_WRITING_DATE_UTC: 2025-06-03 13:20:32
        _STATISTICS_TAGS: BPS DURATION NUMBER_OF_FRAMES NUMBER_OF_BYTES
Input #1, mov,mp4,m4a,3gp,3g2,mj2, from 'G:\Аниме\Онгоинги\!_36_Осень_2024\DreamCast\Пуниру - милая слизь\[DC] Puniru wa Kawaii Slime - 09_Telegram.mp4':
  Metadata:
    major_brand     : isom
    minor_version   : 512
    compatible_brands: isomiso2avc1mp41
    encoder         : Lavf61.1.100
  Duration: 00:24:04.93, start: 0.000000, bitrate: 3542 kb/s
  Stream #1:0[0x1](und): Video: h264 (High) (avc1 / 0x31637661), yuv420p(tv, bt709, progressive), 1920x1080 [SAR 1:1 DAR 16:9], 3413 kb/s, 23.98 fps, 23.98 tbr, 24k tbn (default)
      Metadata:
        handler_name    : VideoHandler
        vendor_id       : [0][0][0][0]
        encoder         : Lavc61.3.100 h264_qsv
  Stream #1:1[0x2](und): Audio: aac (HE-AACv2) (mp4a / 0x6134706D), 48000 Hz, stereo, fltp, 144 kb/s (default)
      Metadata:
        handler_name    : SoundHandler
        vendor_id       : [0][0][0][0]
Stream mapping:
  Stream #0:0 (hevc) -> settb:default
  Stream #1:0 (h264) -> settb:default
  ssim:default -> Stream #0:0 (wrapped_avframe)
  Stream #0:1 -> #0:1 (aac (native) -> pcm_s16le (native))
Output #0, null, to 'pipe:':
  Metadata:
    COMPATIBLE_BRANDS: isomiso2avc1mp41
    MAJOR_BRAND     : isom
    MINOR_VERSION   : 512
    encoder         : Lavf61.7.100
  Stream #0:0: Video: wrapped_avframe, yuv420p10le(tv, bt709, progressive), 1920x1080 [SAR 1:1 DAR 16:9], q=2-31, 200 kb/s, 23.98 fps, 23.98 tbn
      Metadata:
        encoder         : Lavc61.19.100 wrapped_avframe
  Stream #0:1: Audio: pcm_s16le, 48000 Hz, stereo, s16, 1536 kb/s (default)
      Metadata:
        HANDLER_NAME    : SoundHandler
        VENDOR_ID       : [0][0][0][0]
        _STATISTICS_TAGS: BPS DURATION NUMBER_OF_FRAMES NUMBER_OF_BYTES
        BPS             : 194396
        DURATION        : 00:24:04.992000000
        NUMBER_OF_FRAMES: 67735
        NUMBER_OF_BYTES : 35112644
        _STATISTICS_WRITING_APP: mkvpropedit v66.0.0 ('Josie') 64-bit
        _STATISTICS_WRITING_DATE_UTC: 2025-06-03 13:20:32
        encoder         : Lavc61.19.100 pcm_s16le
frame=  178 fps=0.0 q=-0.0 size=N/A time=00:00:07.42 bitrate=N/A speed=14.3x    frame=  391 fps=381 q=-0.0 size=N/A time=00:00:16.30 bitrate=N/A speed=15.9x    frame=  568 fps=366 q=-0.0 size=N/A time=00:00:23.69 bitrate=N/A speed=15.3x    frame=  762 fps=369 q=-0.0 size=N/A time=00:00:31.78 bitrate=N/A speed=15.4x    frame=  995 fps=385 q=-0.0 size=N/A time=00:00:41.49 bitrate=N/A speed=  16x    frame= 1223 fps=395 q=-0.0 size=N/A time=00:00:51.00 bitrate=N/A speed=16.5x    frame= 1418 fps=392 q=-0.0 size=N/A time=00:00:59.14 bitrate=N/A speed=16.3x    frame= 1561 fps=378 q=-0.0 size=N/A time=00:01:05.10 bitrate=N/A speed=15.8x    frame= 1745 fps=375 q=-0.0 size=N/A time=00:01:12.78 bitrate=N/A speed=15.6x    frame= 1943 fps=376 q=-0.0 size=N/A time=00:01:21.03 bitrate=N/A speed=15.7x    frame= 2145 fps=377 q=-0.0 size=N/A time=00:01:29.46 bitrate=N/A speed=15.7x    frame= 2384 fps=385 q=-0.0 size=N/A time=00:01:39.43 bitrate=N/A speed=  16x    frame= 2631 fps=391 q=-0.0 size=N/A time=00:01:49.73 bitrate=N/A speed=16.3x    frame= 2820 fps=389 q=-0.0 size=N/A time=00:01:57.61 bitrate=N/A speed=16.2x    frame= 3072 fps=396 q=-0.0 size=N/A time=00:02:08.12 bitrate=N/A speed=16.5x    frame= 3290 fps=398 q=-0.0 size=N/A time=00:02:17.22 bitrate=N/A speed=16.6x    frame= 3512 fps=400 q=-0.0 size=N/A time=00:02:26.47 bitrate=N/A speed=16.7x    frame= 3731 fps=401 q=-0.0 size=N/A time=00:02:35.61 bitrate=N/A speed=16.7x    frame= 3980 fps=405 q=-0.0 size=N/A time=00:02:45.99 bitrate=N/A speed=16.9x    frame= 4240 fps=411 q=-0.0 size=N/A time=00:02:56.84 bitrate=N/A speed=17.1x    frame= 4499 fps=415 q=-0.0 size=N/A time=00:03:07.64 bitrate=N/A speed=17.3x    frame= 4761 fps=419 q=-0.0 size=N/A time=00:03:18.57 bitrate=N/A speed=17.5x    frame= 5048 fps=424 q=-0.0 size=N/A time=00:03:30.54 bitrate=N/A speed=17.7x    frame= 5319 fps=428 q=-0.0 size=N/A time=00:03:41.84 bitrate=N/A speed=17.9x    frame= 5559 fps=430 q=-0.0 size=N/A time=00:03:51.85 bitrate=N/A speed=17.9x    frame= 5798 fps=431 q=-0.0 size=N/A time=00:04:01.82 bitrate=N/A speed=  18x    frame= 6055 fps=434 q=-0.0 size=N/A time=00:04:12.58 bitrate=N/A speed=18.1x    frame= 6339 fps=438 q=-0.0 size=N/A time=00:04:24.38 bitrate=N/A speed=18.3x    frame= 6611 fps=441 q=-0.0 size=N/A time=00:04:35.73 bitrate=N/A speed=18.4x    frame= 6778 fps=437 q=-0.0 size=N/A time=00:04:42.69 bitrate=N/A speed=18.2x    frame= 7055 fps=441 q=-0.0 size=N/A time=00:04:54.25 bitrate=N/A speed=18.4x    frame= 7326 fps=443 q=-0.0 size=N/A time=00:05:05.55 bitrate=N/A speed=18.5x    frame= 7606 fps=446 q=-0.0 size=N/A time=00:05:17.23 bitrate=N/A speed=18.6x    frame= 7875 fps=448 q=-0.0 size=N/A time=00:05:28.45 bitrate=N/A speed=18.7x    frame= 8136 fps=450 q=-0.0 size=N/A time=00:05:39.33 bitrate=N/A speed=18.8x    frame= 8434 fps=453 q=-0.0 size=N/A time=00:05:51.76 bitrate=N/A speed=18.9x    frame= 8691 fps=455 q=-0.0 size=N/A time=00:06:02.48 bitrate=N/A speed=  19x    frame= 8930 fps=455 q=-0.0 size=N/A time=00:06:12.45 bitrate=N/A speed=  19x    frame= 9169 fps=455 q=-0.0 size=N/A time=00:06:22.42 bitrate=N/A speed=  19x    frame= 9441 fps=457 q=-0.0 size=N/A time=00:06:33.76 bitrate=N/A speed=19.1x    frame= 9686 fps=457 q=-0.0 size=N/A time=00:06:43.98 bitrate=N/A speed=19.1x    frame= 9939 fps=458 q=-0.0 size=N/A time=00:06:54.53 bitrate=N/A speed=19.1x    frame=10194 fps=459 q=-0.0 size=N/A time=00:07:05.17 bitrate=N/A speed=19.2x    frame=10446 fps=460 q=-0.0 size=N/A time=00:07:15.68 bitrate=N/A speed=19.2x    frame=10719 fps=461 q=-0.0 size=N/A time=00:07:27.07 bitrate=N/A speed=19.2x    frame=10980 fps=462 q=-0.0 size=N/A time=00:07:37.95 bitrate=N/A speed=19.3x    frame=11185 fps=461 q=-0.0 size=N/A time=00:07:46.50 bitrate=N/A speed=19.2x    frame=11356 fps=458 q=-0.0 size=N/A time=00:07:53.63 bitrate=N/A speed=19.1x    frame=11637 fps=460 q=-0.0 size=N/A time=00:08:05.35 bitrate=N/A speed=19.2x    frame=11857 fps=459 q=-0.0 size=N/A time=00:08:14.53 bitrate=N/A speed=19.2x    frame=12121 fps=460 q=-0.0 size=N/A time=00:08:25.54 bitrate=N/A speed=19.2x    frame=12350 fps=460 q=-0.0 size=N/A time=00:08:35.09 bitrate=N/A speed=19.2x    frame=12568 fps=459 q=-0.0 size=N/A time=00:08:44.19 bitrate=N/A speed=19.2x    frame=12794 fps=459 q=-0.0 size=N/A time=00:08:53.61 bitrate=N/A speed=19.1x    frame=13030 fps=459 q=-0.0 size=N/A time=00:09:03.45 bitrate=N/A speed=19.1x    frame=13276 fps=459 q=-0.0 size=N/A time=00:09:13.71 bitrate=N/A speed=19.2x    frame=13531 fps=460 q=-0.0 size=N/A time=00:09:24.35 bitrate=N/A speed=19.2x    frame=13769 fps=460 q=-0.0 size=N/A time=00:09:34.28 bitrate=N/A speed=19.2x    frame=14030 fps=461 q=-0.0 size=N/A time=00:09:45.16 bitrate=N/A speed=19.2x    frame=14234 fps=460 q=-0.0 size=N/A time=00:09:53.67 bitrate=N/A speed=19.2x    frame=14492 fps=460 q=-0.0 size=N/A time=00:10:04.43 bitrate=N/A speed=19.2x    frame=14756 fps=461 q=-0.0 size=N/A time=00:10:15.44 bitrate=N/A speed=19.2x    frame=15035 fps=462 q=-0.0 size=N/A time=00:10:27.08 bitrate=N/A speed=19.3x    frame=15313 fps=464 q=-0.0 size=N/A time=00:10:38.67 bitrate=N/A speed=19.3x    frame=15582 fps=464 q=-0.0 size=N/A time=00:10:49.89 bitrate=N/A speed=19.4x    frame=15821 fps=465 q=-0.0 size=N/A time=00:10:59.86 bitrate=N/A speed=19.4x    frame=16077 fps=465 q=-0.0 size=N/A time=00:11:10.54 bitrate=N/A speed=19.4x    frame=16332 fps=465 q=-0.0 size=N/A time=00:11:21.18 bitrate=N/A speed=19.4x    frame=16631 fps=467 q=-0.0 size=N/A time=00:11:33.65 bitrate=N/A speed=19.5x    frame=16884 fps=467 q=-0.0 size=N/A time=00:11:44.20 bitrate=N/A speed=19.5x    frame=17125 fps=467 q=-0.0 size=N/A time=00:11:54.25 bitrate=N/A speed=19.5x    frame=17368 fps=467 q=-0.0 size=N/A time=00:12:04.39 bitrate=N/A speed=19.5x    frame=17521 fps=465 q=-0.0 size=N/A time=00:12:10.77 bitrate=N/A speed=19.4x    frame=17688 fps=463 q=-0.0 size=N/A time=00:12:17.73 bitrate=N/A speed=19.3x    frame=17880 fps=462 q=-0.0 size=N/A time=00:12:25.74 bitrate=N/A speed=19.3x    frame=18146 fps=463 q=-0.0 size=N/A time=00:12:36.83 bitrate=N/A speed=19.3x    frame=18412 fps=463 q=-0.0 size=N/A time=00:12:47.93 bitrate=N/A speed=19.3x    frame=18643 fps=463 q=-0.0 size=N/A time=00:12:57.56 bitrate=N/A speed=19.3x    frame=18887 fps=463 q=-0.0 size=N/A time=00:13:07.74 bitrate=N/A speed=19.3x    frame=19176 fps=464 q=-0.0 size=N/A time=00:13:19.79 bitrate=N/A speed=19.4x    frame=19450 fps=465 q=-0.0 size=N/A time=00:13:31.22 bitrate=N/A speed=19.4x    frame=19724 fps=466 q=-0.0 size=N/A time=00:13:42.65 bitrate=N/A speed=19.4x    frame=20002 fps=467 q=-0.0 size=N/A time=00:13:54.25 bitrate=N/A speed=19.5x    frame=20281 fps=468 q=-0.0 size=N/A time=00:14:05.88 bitrate=N/A speed=19.5x    frame=20549 fps=468 q=-0.0 size=N/A time=00:14:17.06 bitrate=N/A speed=19.5x    frame=20795 fps=468 q=-0.0 size=N/A time=00:14:27.32 bitrate=N/A speed=19.5x    frame=21053 fps=469 q=-0.0 size=N/A time=00:14:38.08 bitrate=N/A speed=19.6x    frame=21283 fps=468 q=-0.0 size=N/A time=00:14:47.67 bitrate=N/A speed=19.5x    frame=21546 fps=469 q=-0.0 size=N/A time=00:14:58.64 bitrate=N/A speed=19.6x    frame=21805 fps=469 q=-0.0 size=N/A time=00:15:09.45 bitrate=N/A speed=19.6x    frame=22050 fps=469 q=-0.0 size=N/A time=00:15:19.66 bitrate=N/A speed=19.6x    frame=22326 fps=470 q=-0.0 size=N/A time=00:15:31.18 bitrate=N/A speed=19.6x    frame=22601 fps=471 q=-0.0 size=N/A time=00:15:42.65 bitrate=N/A speed=19.6x    frame=22872 fps=471 q=-0.0 size=N/A time=00:15:53.95 bitrate=N/A speed=19.7x    frame=23131 fps=472 q=-0.0 size=N/A time=00:16:04.75 bitrate=N/A speed=19.7x    frame=23397 fps=472 q=-0.0 size=N/A time=00:16:15.84 bitrate=N/A speed=19.7x    frame=23670 fps=473 q=-0.0 size=N/A time=00:16:27.23 bitrate=N/A speed=19.7x    frame=23955 fps=474 q=-0.0 size=N/A time=00:16:39.12 bitrate=N/A speed=19.8x    frame=24234 fps=474 q=-0.0 size=N/A time=00:16:50.75 bitrate=N/A speed=19.8x    frame=24512 fps=475 q=-0.0 size=N/A time=00:17:02.35 bitrate=N/A speed=19.8x    frame=24807 fps=476 q=-0.0 size=N/A time=00:17:14.65 bitrate=N/A speed=19.8x    frame=25051 fps=476 q=-0.0 size=N/A time=00:17:24.83 bitrate=N/A speed=19.8x    frame=25277 fps=475 q=-0.0 size=N/A time=00:17:34.26 bitrate=N/A speed=19.8x    frame=25543 fps=476 q=-0.0 size=N/A time=00:17:45.35 bitrate=N/A speed=19.9x    frame=25830 fps=477 q=-0.0 size=N/A time=00:17:57.32 bitrate=N/A speed=19.9x    frame=26099 fps=477 q=-0.0 size=N/A time=00:18:08.54 bitrate=N/A speed=19.9x    frame=26362 fps=477 q=-0.0 size=N/A time=00:18:19.51 bitrate=N/A speed=19.9x    frame=26634 fps=478 q=-0.0 size=N/A time=00:18:30.85 bitrate=N/A speed=19.9x    frame=26890 fps=478 q=-0.0 size=N/A time=00:18:41.53 bitrate=N/A speed=19.9x    frame=27172 fps=479 q=-0.0 size=N/A time=00:18:53.29 bitrate=N/A speed=  20x    frame=27431 fps=479 q=-0.0 size=N/A time=00:19:04.10 bitrate=N/A speed=  20x    frame=27707 fps=479 q=-0.0 size=N/A time=00:19:15.61 bitrate=N/A speed=  20x    frame=27948 fps=479 q=-0.0 size=N/A time=00:19:25.66 bitrate=N/A speed=  20x    frame=28206 fps=479 q=-0.0 size=N/A time=00:19:36.42 bitrate=N/A speed=  20x    frame=28454 fps=480 q=-0.0 size=N/A time=00:19:46.76 bitrate=N/A speed=  20x    frame=28673 fps=479 q=-0.0 size=N/A time=00:19:55.90 bitrate=N/A speed=  20x    frame=28879 fps=478 q=-0.0 size=N/A time=00:20:04.49 bitrate=N/A speed=19.9x    frame=29143 fps=479 q=-0.0 size=N/A time=00:20:15.50 bitrate=N/A speed=  20x    frame=29407 fps=479 q=-0.0 size=N/A time=00:20:26.51 bitrate=N/A speed=  20x    frame=29684 fps=479 q=-0.0 size=N/A time=00:20:38.07 bitrate=N/A speed=  20x    frame=29897 fps=479 q=-0.0 size=N/A time=00:20:46.95 bitrate=N/A speed=  20x    frame=30185 fps=479 q=-0.0 size=N/A time=00:20:58.96 bitrate=N/A speed=  20x    frame=30421 fps=479 q=-0.0 size=N/A time=00:21:08.80 bitrate=N/A speed=  20x    frame=30695 fps=480 q=-0.0 size=N/A time=00:21:20.23 bitrate=N/A speed=  20x    frame=30942 fps=480 q=-0.0 size=N/A time=00:21:30.53 bitrate=N/A speed=  20x    frame=31206 fps=480 q=-0.0 size=N/A time=00:21:41.55 bitrate=N/A speed=  20x    frame=31375 fps=479 q=-0.0 size=N/A time=00:21:48.59 bitrate=N/A speed=  20x    frame=31619 fps=479 q=-0.0 size=N/A time=00:21:58.77 bitrate=N/A speed=  20x    frame=31888 fps=479 q=-0.0 size=N/A time=00:22:09.99 bitrate=N/A speed=  20x    frame=32105 fps=478 q=-0.0 size=N/A time=00:22:19.04 bitrate=N/A speed=  20x    frame=32296 fps=478 q=-0.0 size=N/A time=00:22:27.01 bitrate=N/A speed=19.9x    frame=32536 fps=478 q=-0.0 size=N/A time=00:22:37.02 bitrate=N/A speed=19.9x    frame=32737 fps=477 q=-0.0 size=N/A time=00:22:45.40 bitrate=N/A speed=19.9x    frame=32946 fps=476 q=-0.0 size=N/A time=00:22:54.12 bitrate=N/A speed=19.9x    frame=33186 fps=476 q=-0.0 size=N/A time=00:23:04.13 bitrate=N/A speed=19.9x    frame=33397 fps=476 q=-0.0 size=N/A time=00:23:12.93 bitrate=N/A speed=19.8x    frame=33585 fps=475 q=-0.0 size=N/A time=00:23:20.77 bitrate=N/A speed=19.8x    frame=33742 fps=474 q=-0.0 size=N/A time=00:23:27.32 bitrate=N/A speed=19.8x    frame=33934 fps=473 q=-0.0 size=N/A time=00:23:35.33 bitrate=N/A speed=19.7x    frame=34151 fps=473 q=-0.0 size=N/A time=00:23:44.38 bitrate=N/A speed=19.7x    frame=34390 fps=473 q=-0.0 size=N/A time=00:23:54.34 bitrate=N/A speed=19.7x    [Parsed_ssim_10 @ 0000018a092399c0] SSIM Y:0.995127 (23.122041) U:0.993755 (22.044931) V:0.993696 (22.004122) All:0.994660 (22.724560)
[out#0/null @ 0000018a06914440] video:14800KiB audio:270940KiB subtitle:0KiB other streams:0KiB global headers:0KiB muxing overhead: unknown
frame=34443 fps=473 q=-0.0 Lsize=N/A time=00:23:56.56 bitrate=N/A speed=19.7x    
